<svg xmlns="http://www.w3.org/2000/svg" viewBox="0 0 512 512"><path fill="#82aa41" d="M266.868 297.373c-12.496-12.497-32.758-12.497-45.254 0l-64 64A32 32 0 0 0 148.241 384v64c-17.673 0-32 14.327-32 32 0 8.836 7.163 16 16 16h64c8.837 0 16-7.164 16-16v-82.745l54.627-54.627c12.497-12.497 12.497-32.759 0-45.255"/><path fill="#a5cd3c" d="M388.241 448c0-8.189-3.124-16.379-9.373-22.627l-54.627-54.627V296c0-17.673-14.327-32-32-32s-32 14.327-32 32v88a32 32 0 0 0 9.373 22.627L310.987 448h-2.746c-17.673 0-32 14.327-32 32 0 8.836 7.163 16 16 16h80c8.837 0 16-7.164 16-16z"/><path fill="#82aa41" d="M148.241 232a8 8 0 0 0-8 8v8h-16c0-8.836-7.163-16-16-16v48h32v8a8 8 0 0 0 8 8h48v-64z"/><path fill="#aa5a28" d="M123.519 285.063c-9.22-4.219-15.278-13.256-15.278-23.395V240a8 8 0 0 1 8-8 8 8 0 0 0 0-16h-32a8 8 0 0 0 0 16 8 8 0 0 1 8 8v21.671c0 10.046-5.893 19.149-15.047 23.287-20.164 9.116-33.965 29.822-32.895 53.627 1.291 28.71 24.581 52.03 53.29 53.354 32.134 1.482 58.652-24.132 58.652-55.939 0-22.621-13.415-42.103-32.722-50.937"/><path fill="#a5cd3c" d="M84.241 232c13.255 0 24 10.745 24 24s-10.745 24-24 24a8 8 0 0 1-8-8v-32a8 8 0 0 1 8-8"/><path fill="#82aa41" d="M204.241 64c-26.51 0-48 21.49-48 48v48h8c26.51 0 48-21.49 48-48V92c0-6.627 5.373-12 12-12s12-5.373 12-12v-4z"/><path fill="#aa5a28" d="M324.241 296h-128v26.745l-6.628 6.627c-12.497 12.497-12.497 32.758 0 45.255s32.758 12.497 45.255 0l32-32A31.84 31.84 0 0 0 275.222 328h49.018z"/><path fill="#d76e28" d="M324.241 352v-56c0-17.436-13.67-32.175-31.1-32.653-18.084-.496-32.9 14.015-32.9 31.988V352c0 17.673 14.327 32 32 32s32-14.327 32-32"/><path fill="#82aa41" d="M236.241 208h-64c-17.673 0-32-14.327-32-32v-64c0-17.673 14.327-32 32-32h96c17.673 0 32 14.327 32 32v32c0 17.673-14.327 32-32 32 0 17.673-14.327 32-32 32"/><path fill="#4b8c41" d="M212.241 160c-8.837 0-16 7.163-16 16v48c-19.648 0-35.619 15.74-35.993 35.298C159.862 279.48 176.766 296 196.952 296h127.289V160z"/><path fill="#a5cd3c" d="M284.241 64c-26.51 0-48 21.49-48 48 0-17.673-14.327-32-32-32h-32c-17.673 0-32 14.327-32 32-26.51 0-48 21.49-48 48h48v16c0 17.673 14.327 32 32 32h32c17.673 0 32-14.327 32-32v-16h8c26.51 0 48-21.49 48-48V92c0-6.627 5.373-12 12-12s12-5.373 12-12v-4z"/><path fill="#d7e6f0" d="M188.241 192h-16c-8.837 0-16-7.163-16-16h48c0 8.837-7.163 16-16 16"/><path fill="#82aa41" d="M321.575 32v40a8 8 0 0 0 8 8h10.667v16h32V32z"/><path fill="#a5cd3c" d="M380.241 96h-48a8 8 0 0 0-8 8v56c-17.673 0-32 14.327-32 32s14.327 32 32 32h32c17.673 0 32-14.327 32-32v-88a8 8 0 0 0-8-8"/><path fill="#aac3d7" d="M308.241 64a8 8 0 0 0 8-8V32a8 8 0 0 0-16 0v24a8 8 0 0 0 8 8"/><path fill="#d76e28" d="M316.241 32h64v24h-64z"/><path fill="#a5cd3c" d="M321.575 72V52a4 4 0 0 1 4-4c6.627 0 12 5.373 12 12v4c8.837 0 16 7.164 16 16h-24a8 8 0 0 1-8-8m8-48h34.667a8 8 0 0 1 0 16h-34.667a8 8 0 0 1 0-16"/><path fill="#aac3d7" d="m380.241 32 24-16 52.323 22.424a6.067 6.067 0 0 1 0 11.152L404.241 72l-24-16z"/></svg>