<svg xmlns="http://www.w3.org/2000/svg" xml:space="preserve" viewBox="0 0 512 512"><path d="M370.866 512h-58.684v-27.676h31.008c15.279 0 27.676 12.397 27.676 27.676" style="fill:#bc6d1e"/><path d="M360.164 438.429a23.4 23.4 0 0 1-1.061 8.326l-.242.784h-52.665c.83-7.784 2.698-12.523 2.698-12.523-4.751-4.751-8.268-14.795-10.736-24.654 6.277-20.285 39.514-32.766 61.083-11.197z" style="fill:#a55d1c"/><path d="m358.861 447.539-11.624 36.786h-35.056c-6.481-14.576-6.942-27.733-5.985-36.786z" style="fill:#8be8e8"/><path d="M266.932 512h-58.684v-27.676h31.008c15.291 0 27.676 12.397 27.676 27.676m99.072-115.361c-2.18.876-4.44 1.73-6.757 2.525-17.586 6.112-38.988 10.056-61.083 11.197-7.599.392-15.279.45-22.913.138h-.012a224 224 0 0 1-20.561-1.718l1.568 29.648a23.7 23.7 0 0 1-1.061 8.326l-.242.784h-52.676c.83-7.784 2.698-12.523 2.698-12.523-10.955-10.955-15.348-50.07-15.348-50.07-16.744-13.019-26.788-31.423-25.231-56.239 0 0 22.302 7.841 53.898 14.772v.012c54.279 11.935 135.957 21.23 178.958-16.409 4.867 27.213 1.039 56.549-31.238 69.557" style="fill:#bc6d1e"/><path d="M397.242 327.079c-43.001 37.639-124.679 28.345-178.958 16.409v-.012c-31.596-6.93-53.898-14.772-53.898-14.772a283.4 283.4 0 0 1 9.364-56.666c-21.552 21.645-44.039 55.317-54.371 71.507a10.36 10.36 0 0 0-5.812 9.317c-7.126-101.501 57.07-145.932 86.475-160.957 8.349-4.278 13.895-6.181 14.207-6.342l.012-.012a96.6 96.6 0 0 0 24.251 14.622c11.578 4.855 24.297 7.53 37.639 7.53 30.881 0 51.569-14.357 63.596-36.763 0 0 2.479 2.295 6.215 6.319 14.541 15.625 48.213 57.415 29.901 92.275 0 0 1.637 2.814 4.048 7.634 5.107 10.231 13.675 29.466 17.331 49.911" style="fill:#8be8e8"/><path d="M352.858 110.184c0 7.738-.473 15.256-1.441 22.475-1.903 14.218-5.731 27.237-11.67 38.285-12.027 22.406-32.715 36.763-63.596 36.763-17.009 0-32.992-4.347-46.91-12.004a97 97 0 0 1-14.979-10.148c-15.856-13.031-27.537-30.985-32.692-51.534-2.71 2.26-5.881 3.563-9.294 3.563-9.802 0-17.759-10.794-17.759-24.112l.565-46.587 25.254 25.104c-5.431-63.031 37.893-87.098 81.32-91.295A149 149 0 0 1 276.15 0c53.864 0 76.708 56.332 76.708 110.184" style="fill:#8be8e8"/><path d="M345.961 177.262c-1.73 5.108-3.794 9.94-6.215 14.437-12.027 22.406-32.715 36.763-63.596 36.763-17.009 0-32.992-4.347-46.91-12.004a97 97 0 0 1-14.979-10.148 97 97 0 0 1-14.218-14.403c8.349-4.278 13.895-6.181 14.207-6.342l.012-.012a96.6 96.6 0 0 0 24.251 14.622c11.578 4.855 24.297 7.53 37.639 7.53 30.881 0 51.569-14.357 63.596-36.763-.003 0 2.477 2.295 6.213 6.32" style="fill:#76cecc"/><path d="m254.939 447.539-11.624 36.786h-35.067c-6.481-14.576-6.942-27.733-5.985-36.786z" style="fill:#8be8e8"/><path d="M218.285 343.478c-31.596-6.93-53.898-14.772-53.898-14.772a283.4 283.4 0 0 1 9.364-56.666c-21.552 21.645-44.039 55.317-54.371 71.507a10.36 10.36 0 0 0-5.812 9.317c-9.156-130.306 99.263-166.55 100.682-167.299l.012-.012a96.6 96.6 0 0 0 24.251 14.622l1.903 2.779c-.002.001-40.801 68.879-22.131 140.524m17.35-61.825c6.195-.353 12.103-.076 17.97.294 5.855.39 11.627.993 17.366 1.579 1.433.198 2.866.315 4.298.461 1.429.175 2.863.359 4.289.488 1.428.164 2.858.3 4.289.509 1.425.118 2.854.277 4.289.453 5.747.615 11.434 1.17 17.627 1.695a46 46 0 0 1-4.134 2.136c-1.421.671-2.892 1.062-4.37 1.56-.74.218-1.489.469-2.237.641l-2.256.473c-1.508.288-3.037.619-4.554.748-1.52.167-3.047.317-4.578.426-1.521.076-3.043.07-4.569.096-3.046-.003-6.075-.204-9.083-.517-6.022-.626-11.935-1.891-17.704-3.642-5.749-1.818-11.409-4.02-16.643-7.4" style="fill:#76cecc"/><path d="M256.247 438.429a23.7 23.7 0 0 1-1.061 8.326l-.242.784h-52.676c.83-7.784 2.698-12.523 2.698-12.523-10.955-10.955-15.348-50.07-15.348-50.07-16.744-13.019-26.788-31.423-25.231-56.239 0 0 22.302 7.841 53.898 14.772v.012s36.44 57.727 56.954 67.01a224 224 0 0 1-20.561-1.718z" style="fill:#a55d1c"/><path d="M229.24 195.702a97 97 0 0 1-14.979-10.148c-15.856-13.031-27.537-30.985-32.692-51.534-2.71 2.26-5.881 3.563-9.294 3.563-9.802 0-17.759-10.794-17.759-24.112l.565-46.587 25.254 25.104C174.904 28.957 218.228 4.89 261.655.693c-7.841 8.267-81.24 89.818-32.415 195.009m-98.93 169.005c-9.356 0-16.967-7.612-16.967-16.967s7.612-16.967 16.967-16.967 16.967 7.612 16.967 16.967-7.611 16.967-16.967 16.967m141.238-96.6c-2.894 0-5.288-2.483-5.182-5.375.106-2.897 2.665-5.191 5.556-4.991 2.675.187 4.816 2.5 4.816 5.175-.001 2.825-2.364 5.191-5.19 5.191m95.931-10.448c-2.831 0-5.18-2.364-5.189-5.189-.009-2.775 2.26-5.099 5.023-5.182 2.755-.082 5.134 2.056 5.343 4.809.222 2.953-2.222 5.562-5.177 5.562" style="fill:#76cecc"/><path d="M268.839 110.703a6.34 6.34 0 0 1-6.342-6.342V90.038a6.342 6.342 0 0 1 12.684 0v14.322a6.34 6.34 0 0 1-6.342 6.343m57.819-5.766a6.34 6.34 0 0 1-6.342-6.342V85.541a6.342 6.342 0 0 1 12.684 0v13.054a6.34 6.34 0 0 1-6.342 6.342" style="fill:#666"/><path d="M351.404 132.658c-1.222 2.226-2.525 4.509-4.198 6.469-.819 1.003-1.603 2.076-2.537 2.975-.899.934-1.845 1.834-2.791 2.768a54 54 0 0 1-3.056 2.525c-3.114 2.399-6.504 4.486-10.056 6.262l-1.672.738-1.949.865c-1.222.565-2.479.934-3.713 1.395-1.245.438-2.502.888-3.771 1.199-1.268.346-2.548.715-3.828.992-5.132 1.188-10.344 1.787-15.533 1.995-8.833.357-17.574-.623-26.015-2.583a99 99 0 0 1-4.44-1.119 104 104 0 0 1-8.868-2.952 93 93 0 0 1-5.42-2.283c-4.59-2.156-9.087-4.566-13.146-7.761 8.453.242 16.49.75 24.412 1.165 1.661.092 3.298.173 4.947.242l1.211.046 5.87.231c2.352.058 4.693.15 7.023.161 4.659.069 9.283.081 13.861-.115 4.566-.208 9.121-.496 13.619-1.038 2.226-.323 4.497-.554 6.711-.969 2.249-.346 4.428-.865 6.677-1.292 1.326-.311 2.652-.657 3.967-1.015 1.96-.542 3.921-1.13 5.893-1.776q1.695-.571 3.39-1.176c4.417-1.637 8.742-3.724 13.412-5.949" style="fill:#ef5454"/><path d="M272.286 158.258a99 99 0 0 1-4.44-1.119 104 104 0 0 1-8.868-2.952l5.846-8.879 5.305-8.061.853 8.349zm66.537-10.863c-3.114 2.399-6.504 4.486-10.056 6.262l-1.672.738 1.614-12.835 1.268-10.102 4.624 8.326z" style="fill:#fff"/><path d="m379.91 277.171-17.816 2.975 13.769-10.609c-.001 0 1.637 2.814 4.047 7.634" style="fill:#76cecc"/></svg>