<svg xmlns="http://www.w3.org/2000/svg" viewBox="0 0 512 512"><path fill="#8caac8" d="m198.821 32 17.689-8.845a67.79 67.79 0 0 1 60.622 0L294.821 32l-10.343 10.343A19.32 19.32 0 0 0 278.821 56h-64a19.32 19.32 0 0 0-5.657-13.657z"/><path fill="#d7e6f0" d="M216.51 36.489a67.77 67.77 0 0 1 60.622 0l8.8 4.4L294.821 32l-17.689-8.845a67.79 67.79 0 0 0-60.622 0L198.821 32l8.889 8.889z"/><path fill="#f0915a" d="M374.821 56v32a8 8 0 0 0 8 8h8v16h32V56z"/><path fill="#aa5a28" d="M214.821 56h224v24h-224z"/><path fill="#463c4b" d="M446.821 88a8 8 0 0 0 8-8V56a8 8 0 0 0-16 0v24a8 8 0 0 0 8 8"/><path fill="#fab991" d="M374.821 88V68a4 4 0 0 1 4-4c6.627 0 12 5.373 12 12v4c8.837 0 16 7.164 16 16h-24a8 8 0 0 1-8-8m40-40h-32a8 8 0 0 0 0 16h32a8 8 0 0 0 0-16"/><circle cx="150.821" cy="256" r="96" fill="#8caac8"/><path fill="#4b8c41" d="M158.821 296h72v-64h-72a8 8 0 0 0-8 8v48a8 8 0 0 0 8 8"/><path fill="#f0915a" d="M142.821 248c0-8.837-7.164-16-16-16h-8v48h32v-32z"/><path fill="#463c4b" d="M118.821 288h8a8 8 0 0 0 8-8v-48a8 8 0 0 0-8-8h-8a8 8 0 0 0-8 8v48a8 8 0 0 0 8 8"/><path fill="#fab991" d="M108.154 232c13.255 0 24 10.745 24 24s-10.745 24-24 24a8 8 0 0 1-8-8v-32a8 8 0 0 1 8-8"/><path fill="#aa5a28" d="M230.821 480c-17.673 0-32-14.327-32-32v-64a32 32 0 0 1 9.373-22.627l64-64c12.496-12.497 32.758-12.497 45.254 0 12.497 12.497 12.497 32.758 0 45.255l-54.627 54.627V448c0 17.673-14.327 32-32 32"/><path fill="#d76e28" d="M406.821 480c-8.189 0-16.379-3.124-22.627-9.373l-64-64A32 32 0 0 1 310.821 384v-80c0-17.673 14.327-32 32-32s32 14.327 32 32v66.745l54.627 54.627c12.497 12.497 12.497 32.758 0 45.255C423.2 476.876 415.01 480 406.821 480"/><path fill="#32283c" d="M182.821 496h64c8.837 0 16-7.163 16-16v-32h-64c-17.673 0-32 14.327-32 32 0 8.837 7.163 16 16 16"/><path fill="#463c4b" d="M438.821 448v32c0 8.837-7.163 16-16 16h-80c-8.837 0-16-7.163-16-16 0-17.673 14.327-32 32-32z"/><path fill="#82aa41" d="M390.821 304h-192c-8.837 0-16-7.163-16-16V176h224v112c0 8.837-7.163 16-16 16"/><path fill="#fab991" d="M246.821 208h-32c-17.673 0-32-14.327-32-32v-64c0-17.673 14.327-32 32-32h32c17.673 0 32 14.327 32 32v64c0 17.673-14.327 32-32 32"/><path fill="#463c4b" d="M318.821 128v48c0 17.67-14.33 32-32 32h-24c0 35.35-28.65 64-64 64h-32c-8.84 0-16-7.16-16-16s7.16-16 16-16v-64c0-8.84 7.16-16 16-16h80v-32z"/><path fill="#fab991" d="M286.821 160a8 8 0 0 1-8-8v-16a8 8 0 0 1 8-8c8.837 0 16 7.163 16 16s-7.163 16-16 16"/><path fill="#a5cd3c" d="M430.821 112h-48a8 8 0 0 0-8 8v56c-17.673 0-32 14.327-32 32s14.327 32 32 32h32c17.673 0 32-14.327 32-32v-88a8 8 0 0 0-8-8"/><path fill="#463c4b" d="M198.821 304h192v32h-192z"/><path fill="#faa51e" d="M230.821 304h48v32h-48z"/><path fill="#82aa41" d="M390.821 384h-192c-8.837 0-16-7.163-16-16v-16c0-8.837 7.163-16 16-16h192c8.837 0 16 7.163 16 16v16c0 8.837-7.163 16-16 16"/><path fill="#faa51e" d="M318.821 128h-144a8 8 0 0 1-8-8v-8a8 8 0 0 1 8-8h144a8 8 0 0 1 8 8v8a8 8 0 0 1-8 8"/><path fill="#32283c" d="M190.821 56v21.333h26.667c7.364 0 13.333 5.97 13.333 13.333s-5.97 13.333-13.333 13.333h-26.667c-13.255 0-24-10.745-24-24V32c13.255 0 24 10.745 24 24"/><path fill="#d76e28" d="M262.821 48h-32c-30.928 0-56 25.072-56 56h144c0-30.928-25.072-56-56-56"/><path fill="#faa51e" d="M374.821 160c-26.51 0-48 21.49-48 48a8 8 0 0 0 8 8h-48a8 8 0 0 1-8-8c0-26.51 21.49-48 48-48z"/><path fill="#d76e28" d="M374.821 176c-17.673 0-32 14.327-32 32a8 8 0 0 1-16 0c0-26.51 21.49-48 48-48z"/><path fill="#463c4b" d="M302.821 56v21.333h-26.667c-7.364 0-13.333 5.97-13.333 13.333s5.97 13.333 13.333 13.333h26.667c13.255 0 24-10.745 24-24V32c-13.255 0-24 10.745-24 24"/><path fill="#fab991" d="M210.821 184h-24a4 4 0 0 1 0-8h24a4 4 0 0 1 0 8"/></svg>