<svg xmlns="http://www.w3.org/2000/svg" viewBox="0 0 512 512"><path fill="#ffe07d" d="M419.674 82.304h-117.22v60.592h129.262c22.309 0 40.394-18.085 40.394-40.394V7.574l-34.668 64.137a20.2 20.2 0 0 1-17.768 10.593"/><path fill="#ffd064" d="M393.341 130.777c0-17.056-3.134-33.392-8.842-48.473h-82.045v60.592h90.887z"/><path fill="#ffe07d" d="M92.326 82.304h117.221v60.592H80.284c-22.309 0-40.394-18.085-40.394-40.394V7.574l34.668 64.137a20.2 20.2 0 0 0 17.768 10.593"/><path fill="#ffd064" d="M118.659 130.777c0-17.056 3.134-33.392 8.842-48.473h82.045v60.592h-90.887z"/><path fill="#aa7a63" d="M369.104 130.778c0-62.466-50.639-113.104-113.104-113.104S142.896 68.312 142.896 130.778v12.118h226.209v-12.118z"/><path fill="#986b54" d="M369.104 130.778c0-56.083-40.822-102.624-94.372-111.551 37.365 18.464 63.066 56.954 63.066 101.453v22.217h31.306z"/><path fill="#ffddce" d="M385.262 223.685h-16.158v-48.473h16.158c8.924 0 16.158 7.234 16.158 16.158v16.158c0 8.923-7.234 16.157-16.158 16.157m-258.524 0h16.158v-48.473h-16.158c-8.924 0-16.158 7.234-16.158 16.158v16.158c0 8.923 7.234 16.157 16.158 16.157"/><path fill="#61aab7" d="M296.394 290.336h-80.789l-103.623 38.107c-31.784 11.688-52.905 41.959-52.905 75.824v100.16h393.846v-100.16c0-33.865-21.121-64.136-52.905-75.824z"/><path fill="#5493a2" d="m400.018 328.442-103.623-38.107h-80.789l-101.994 37.508c2.87 12.88 11.614 23.571 23.263 29.105a42.7 42.7 0 0 0 16.953 18.48c5.31 17.367 21.489 30.032 40.571 30.032 3.415 0 6.757-.401 9.972-1.171a42.2 42.2 0 0 0 20.323 5.211c5.493 0 10.783-1.05 15.653-2.983 4.87 1.932 10.16 2.983 15.653 2.983s10.783-1.05 15.653-2.983a42.4 42.4 0 0 0 15.653 2.983 42.2 42.2 0 0 0 20.323-5.211 42.8 42.8 0 0 0 9.972 1.171c19.082 0 35.261-12.665 40.571-30.032a42.74 42.74 0 0 0 14.843-14.58c1.514-2.479 3.602-4.533 6.078-6.051q.351-.216.699-.438c12.535-8.026 29.249.588 29.674 15.467a81 81 0 0 1 .033 2.309v132.292h43.424v-100.16c0-33.866-21.121-64.137-52.905-75.825"/><path fill="#e7a52e" d="M371.942 273.913c7.568-1.343 13.32-7.94 13.32-15.893 0-8.924-7.234-16.158-16.158-16.158v-66.651h-32.316v54.533c0 44.618-36.17 80.789-80.789 80.789s-80.789-36.17-80.789-80.789v-54.533h-32.316v66.651c-8.924 0-16.158 7.234-16.158 16.158 0 7.954 5.752 14.55 13.32 15.893-6.55 2.062-11.301 8.181-11.301 15.412 0 8.924 7.234 16.158 16.158 16.158.255 0 .503-.026.754-.038-4.118 2.928-6.814 7.728-6.814 13.166 0 8.924 7.234 16.158 16.158 16.158 1.654 0 3.25-.251 4.752-.713a16.2 16.2 0 0 0-.713 4.752c0 8.924 7.234 16.158 16.158 16.158 2.094 0 4.088-.411 5.925-1.136a16.1 16.1 0 0 0-2.895 9.215c0 8.924 7.234 16.158 16.158 16.158 6.335 0 11.803-3.654 14.451-8.962 1.469 7.412 8.002 13.001 15.845 13.001 7.561 0 13.89-5.2 15.653-12.214 1.763 7.014 8.092 12.214 15.653 12.214s13.89-5.2 15.653-12.214c1.763 7.014 8.092 12.214 15.653 12.214 7.843 0 14.376-5.589 15.845-13.001 2.648 5.307 8.116 8.962 14.451 8.962 8.924 0 16.158-7.234 16.158-16.158 0-3.428-1.075-6.6-2.895-9.215a16.1 16.1 0 0 0 5.925 1.136c8.924 0 16.158-7.234 16.158-16.158 0-1.654-.251-3.25-.713-4.752 1.503.462 3.098.713 4.752.713 8.924 0 16.158-7.234 16.158-16.158 0-5.438-2.695-10.238-6.814-13.166.252.012.5.038.754.038 8.924 0 16.158-7.234 16.158-16.158.001-7.23-4.749-13.349-11.299-15.412"/><path fill="#e27d47" d="M273.91 376.08c2.896 4.316 7.806 7.163 13.396 7.163 7.843 0 14.376-5.589 15.845-13.001 2.648 5.307 8.116 8.962 14.451 8.962 8.924 0 16.158-7.234 16.158-16.158 0-3.428-1.075-6.6-2.895-9.215a16.1 16.1 0 0 0 5.925 1.136c8.924 0 16.158-7.234 16.158-16.158 0-1.654-.251-3.25-.713-4.752 1.503.462 3.098.713 4.752.713 8.924 0 16.158-7.234 16.158-16.158 0-5.438-2.695-10.238-6.814-13.166.252.012.5.038.754.038 8.924 0 16.158-7.234 16.158-16.158 0-7.231-4.751-13.35-11.301-15.412 7.568-1.343 13.32-7.94 13.32-15.893 0-8.924-7.234-16.158-16.158-16.158v-66.651h-16.158v66.651c.001 77.469-50.678 118.811-79.036 134.217"/><path fill="#ffddce" d="M175.211 175.211v54.533c0 44.618 36.17 80.789 80.789 80.789s80.789-35.856 80.789-80.475v-54.847z"/><path fill="#ffcbbe" d="M313.562 175.211v54.847c0 40.664-30.047 74.036-69.148 79.635 3.785.544 7.65.84 11.586.84 44.618 0 80.789-35.856 80.789-80.475v-54.847z"/><path fill="#e27d47" d="M310.927 251.307c-12.488-13.393-31.531-18.484-49.071-13.222L256 239.842l-5.856-1.757c-17.54-5.262-36.583-.171-49.071 13.222-14.238 15.271-21.822 34.989-21.822 34.989 34.441 0 54.915-8.38 65.94-15.285a20.33 20.33 0 0 1 21.619 0c11.025 6.905 31.499 15.285 65.94 15.285-.001 0-7.584-19.718-21.823-34.989"/><path fill="#df751c" d="M298.414 248.426c0 10.391-11.007 19.534-27.682 24.865 11.702 6.34 31.302 13.005 62.017 13.005 0 0-7.584-19.718-21.822-34.989a47.9 47.9 0 0 0-14.661-10.682c1.392 2.488 2.148 5.101 2.148 7.801"/><path fill="#f9f6f9" d="M393.341 142.896H292.355c-11.155 0-20.197-9.043-20.197-20.197V15.653a8.08 8.08 0 0 0-8.079-8.079h-16.158a8.08 8.08 0 0 0-8.079 8.079v107.045c0 11.155-9.043 20.197-20.197 20.197H118.659a8.08 8.08 0 0 0-8.079 8.079v16.158a8.08 8.08 0 0 0 8.079 8.079h274.682a8.08 8.08 0 0 0 8.079-8.079v-16.158a8.08 8.08 0 0 0-8.079-8.078"/><path fill="#dddaec" d="M393.341 142.896h-19.043a8.08 8.08 0 0 1 8.079 8.079v16.158a8.08 8.08 0 0 1-8.079 8.079h19.043a8.08 8.08 0 0 0 8.079-8.079v-16.158a8.08 8.08 0 0 0-8.079-8.079"/><path d="M473.968.232a7.576 7.576 0 0 0-8.52 3.741L430.779 68.11a12.61 12.61 0 0 1-11.105 6.621H362.87a120.3 120.3 0 0 0-15.125-22.343 7.574 7.574 0 0 0-11.51 9.846c16.313 19.07 25.296 43.413 25.296 68.544v4.544h-69.175c-6.961 0-12.623-5.663-12.623-12.623V27.933c11.121 2.546 21.685 6.866 31.497 12.904a7.57 7.57 0 0 0 10.42-2.482 7.575 7.575 0 0 0-2.481-10.42c-12.325-7.584-25.684-12.807-39.789-15.568C277.864 5.31 271.583 0 264.079 0h-16.158c-7.507 0-13.791 5.314-15.302 12.377-26.077 5.128-49.862 18.824-67.508 39.007a120.4 120.4 0 0 0-15.987 23.346H92.326a12.61 12.61 0 0 1-11.105-6.621L46.552 3.973a7.575 7.575 0 0 0-14.236 3.602v94.927c0 26.45 21.519 47.968 47.968 47.968h22.747c-.005.169-.026.335-.026.505v16.158c0 4.138 1.626 7.896 4.257 10.698a23.6 23.6 0 0 0-4.257 13.539v16.158c0 13.086 10.646 23.732 23.732 23.732h8.584v4.269c-9.384 3.168-16.158 12.054-16.158 22.493a23.67 23.67 0 0 0 6.949 16.785c-3.127 4.048-4.929 9.106-4.929 14.52 0 8.737 4.745 16.386 11.794 20.505a24 24 0 0 0-.992 3.18l-22.616 8.319c-34.611 12.732-57.866 46.063-57.866 82.939v29.973a7.574 7.574 0 0 0 15.148 0V404.27c0-30.555 19.269-58.173 47.947-68.722l18.905-6.954c3.333 7.154 10.115 12.389 18.206 13.522 1.405 10.036 9.109 18.081 18.976 19.994q-.018.468-.018.938c0 13.086 10.646 23.732 23.732 23.732 4.638 0 9.037-1.325 12.768-3.711 4.384 4.795 10.679 7.75 17.528 7.75a23.67 23.67 0 0 0 15.653-5.893c4.214 3.703 9.721 5.893 15.653 5.893s11.439-2.191 15.653-5.893a23.67 23.67 0 0 0 15.653 5.893c6.849 0 13.144-2.955 17.528-7.75a23.64 23.64 0 0 0 12.768 3.711c13.086 0 23.732-10.646 23.732-23.732q0-.47-.018-.938c9.867-1.913 17.571-9.957 18.976-19.994 8.093-1.133 14.876-6.37 18.208-13.526l18.902 6.958a72.9 72.9 0 0 1 22.686 13.387 7.55 7.55 0 0 0 4.96 1.853 7.574 7.574 0 0 0 4.967-13.295 88 88 0 0 0-27.381-16.161l-22.619-8.326c-.265-1.08-.579-2.145-.991-3.173 7.049-4.119 11.794-11.768 11.794-20.505 0-5.414-1.803-10.472-4.929-14.52a23.68 23.68 0 0 0 6.949-16.785c0-10.439-6.774-19.325-16.158-22.493v-4.269h8.584c13.086 0 23.732-10.646 23.732-23.732v-16.158c0-5.03-1.578-9.696-4.257-13.539 2.632-2.802 4.257-6.559 4.257-10.698v-16.158c0-.17-.02-.336-.026-.505h22.747c26.45 0 47.968-21.519 47.968-47.968V7.574a7.58 7.58 0 0 0-5.718-7.342M247.416 15.653c0-.279.226-.505.505-.505h16.158c.279 0 .505.226.505.505v107.045c0 15.313 12.458 27.771 27.771 27.771h100.986c.279 0 .505.226.505.505v16.158a.505.505 0 0 1-.505.505H118.659a.505.505 0 0 1-.505-.505v-16.158c0-.279.226-.505.505-.505h100.986c15.313 0 27.771-12.458 27.771-27.771zm73.205 262.692c-25.265-1.619-40.85-8.153-49.791-13.753-4.574-2.864-9.702-4.296-14.83-4.296s-10.256 1.432-14.83 4.296c-8.941 5.6-24.526 12.134-49.791 13.753 3.441-6.433 8.579-14.736 15.233-21.872 10.419-11.174 26.651-15.544 41.355-11.133l5.857 1.757a7.57 7.57 0 0 0 4.353 0l5.857-1.757c14.703-4.411 30.936-.042 41.355 11.133 6.653 7.137 11.791 15.439 15.232 21.872m-71.41-.915c4.188-2.623 9.391-2.623 13.579 0 7.339 4.596 18.399 9.73 34.172 13.019-11.985 8.133-26.092 12.509-40.961 12.509s-28.977-4.377-40.961-12.509c15.772-3.289 26.832-8.423 34.171-13.019m75.203-21.592c-2.381-3.276-5.029-6.565-7.947-9.695-14.536-15.591-36.297-21.46-56.787-15.311l-3.68 1.104-3.68-1.104c-20.494-6.148-42.25-.28-56.787 15.311-2.918 3.13-5.566 6.419-7.947 9.695a73.3 73.3 0 0 1-4.801-26.094v-46.959h146.43v46.959a73.3 73.3 0 0 1-4.801 26.094M232.268 27.95v94.748c0 6.961-5.663 12.623-12.623 12.623H150.47v-4.544c0-49.216 34.6-91.947 81.798-102.827M47.464 102.501V37.514l20.432 37.799a27.74 27.74 0 0 0 24.43 14.566h50.137a120.7 120.7 0 0 0-7.141 40.899v4.544H80.284c-18.097 0-32.82-14.723-32.82-32.821m79.274 113.61c-4.733 0-8.584-3.851-8.584-8.584v-16.158c0-4.733 3.851-8.584 8.584-8.584h8.584v33.325zm250.95 41.909a8.56 8.56 0 0 1-7.07 8.436 7.576 7.576 0 0 0-.951 14.682 8.55 8.55 0 0 1 6.001 8.188c0 4.703-3.802 8.535-8.495 8.583l-.503-.03a7.56 7.56 0 0 0-7.502 5.101 7.57 7.57 0 0 0 2.772 8.638c2.306 1.64 3.629 4.189 3.629 6.994 0 4.733-3.851 8.584-8.584 8.584-.859 0-1.71-.127-2.527-.379a7.574 7.574 0 0 0-9.465 9.465c.251.818.379 1.668.379 2.527 0 4.733-3.851 8.584-8.584 8.584a8.5 8.5 0 0 1-3.143-.607 7.574 7.574 0 0 0-8.997 11.373 8.5 8.5 0 0 1 1.537 4.888c0 4.733-3.851 8.584-8.584 8.584-3.266 0-6.206-1.827-7.674-4.769a7.574 7.574 0 0 0-14.206 1.91c-.792 3.998-4.331 6.899-8.415 6.899a8.56 8.56 0 0 1-8.307-6.487 7.575 7.575 0 0 0-14.692 0c-.96 3.82-4.376 6.487-8.307 6.487s-7.348-2.667-8.307-6.487a7.575 7.575 0 0 0-14.692 0 8.56 8.56 0 0 1-8.307 6.487c-4.084 0-7.623-2.901-8.415-6.899a7.575 7.575 0 0 0-14.206-1.91c-1.468 2.942-4.408 4.769-7.674 4.769-4.733 0-8.584-3.851-8.584-8.584 0-1.753.532-3.443 1.537-4.888a7.575 7.575 0 0 0-8.997-11.373 8.5 8.5 0 0 1-3.143.607c-4.733 0-8.584-3.851-8.584-8.584 0-.859.127-1.71.379-2.527a7.574 7.574 0 0 0-9.465-9.465 8.6 8.6 0 0 1-2.527.379c-4.733 0-8.584-3.851-8.584-8.584 0-2.805 1.322-5.354 3.629-6.994a7.57 7.57 0 0 0 2.772-8.638 7.56 7.56 0 0 0-7.502-5.101l-.503.03c-4.692-.048-8.495-3.88-8.495-8.583a8.55 8.55 0 0 1 6.001-8.188 7.574 7.574 0 0 0-.951-14.682 8.56 8.56 0 0 1-7.07-8.436c0-4.733 3.851-8.584 8.584-8.584a7.574 7.574 0 0 0 7.574-7.574v-59.077h17.168v46.959a88.25 88.25 0 0 0 10.352 41.494c-3.688 6.899-5.647 11.921-5.807 12.339a7.573 7.573 0 0 0 7.069 10.293c5.444 0 10.558-.206 15.369-.577 16.558 16.021 38.205 24.813 61.38 24.813s44.822-8.792 61.38-24.813c4.811.37 9.925.577 15.369.577a7.573 7.573 0 0 0 7.069-10.293c-.161-.418-2.119-5.44-5.807-12.339a88.25 88.25 0 0 0 10.352-41.494v-46.959h17.168v59.077a7.574 7.574 0 0 0 7.574 7.574c4.732 0 8.582 3.851 8.582 8.584m16.158-50.493c0 4.733-3.851 8.584-8.584 8.584h-8.584v-33.325h8.584c4.733 0 8.584 3.851 8.584 8.584zm70.69-105.026c0 18.097-14.723 32.82-32.82 32.82h-55.037v-4.544c0-14.048-2.462-27.88-7.151-40.899h50.147a27.74 27.74 0 0 0 24.43-14.566l20.432-37.799v64.988zm-21.658 262.006a7.574 7.574 0 0 0-3.843 9.998 72.8 72.8 0 0 1 6.315 29.763v92.584h-62.611V472.11a7.574 7.574 0 0 0-15.148 0v24.742H144.41V472.11a7.574 7.574 0 0 0-15.148 0v24.742H66.651v-27.266a7.574 7.574 0 0 0-15.148 0v34.84A7.574 7.574 0 0 0 59.077 512h393.846a7.574 7.574 0 0 0 7.574-7.574V404.268c0-12.46-2.564-24.545-7.621-35.918a7.573 7.573 0 0 0-9.998-3.843"/></svg>